<svg xmlns="http://www.w3.org/2000/svg" viewBox="0 0 1200 675" width="100%" height="100%">
  <defs>
    <linearGradient id="bgGrad3" x1="0%" y1="0%" x2="100%" y2="100%">
      <stop offset="0%" stop-color="#040b09" />
      <stop offset="50%" stop-color="#07130f" />
      <stop offset="100%" stop-color="#030806" />
    </linearGradient>
    <linearGradient id="emeraldGrad" x1="0%" y1="0%" x2="100%" y2="0%">
      <stop offset="0%" stop-color="#10b981" />
      <stop offset="50%" stop-color="#34d399" />
      <stop offset="100%" stop-color="#06b6d4" />
    </linearGradient>
    <filter id="emeraldGlow" x="-20%" y="-20%" width="140%" height="140%">
      <feGaussianBlur stdDeviation="18" result="blur" />
    </filter>
  </defs>

  <!-- Background -->
  <rect width="1200" height="675" fill="url(#bgGrad3)" />

  <circle cx="300" cy="200" r="180" fill="#10b981" opacity="0.08" filter="url(#emeraldGlow)" />
  <circle cx="950" cy="400" r="220" fill="#06b6d4" opacity="0.08" filter="url(#emeraldGlow)" />

  <!-- Window Frame -->
  <rect x="70" y="45" width="1060" height="585" rx="16" fill="#08100d" stroke="#10b981" stroke-opacity="0.25" stroke-width="1.5" />

  <!-- Window Bar -->
  <rect x="70" y="45" width="1060" height="40" rx="16" fill="#040806" />
  <rect x="70" y="65" width="1060" height="20" fill="#040806" />
  <line x1="70" y1="85" x2="1130" y2="85" stroke="#ffffff" stroke-opacity="0.08" />

  <circle cx="96" cy="65" r="5" fill="#ef4444" />
  <circle cx="114" cy="65" r="5" fill="#eab308" />
  <circle cx="132" cy="65" r="5" fill="#22c55e" />

  <text x="600" y="69" fill="#6ee7b7" font-family="-apple-system, sans-serif" font-size="12" font-weight="600" text-anchor="middle">Aether IDE — Spring Boot &amp; Java Microservice Autonomous Workspace</text>

  <!-- Left: Java AST Explorer -->
  <rect x="70" y="85" width="240" height="545" fill="#060c0a" stroke="#ffffff" stroke-opacity="0.06" />
  <text x="95" y="115" fill="#34d399" font-family="monospace" font-size="11" font-weight="700">JAVA 21 / SPRING BOOT 3</text>
  
  <g font-family="monospace" font-size="12" fill="#d1fae5">
    <text x="95" y="145">📁 src/main/java</text>
    <text x="110" y="170">📁 com/quantum/enterprise</text>
    <text x="125" y="195" fill="#34d399">☕ PaymentGatewayService.java</text>
    <text x="125" y="220">☕ OrderPipelineController.java</text>
    <text x="125" y="245">☕ ReactiveKafkaConsumer.java</text>
    <text x="95" y="280">📁 src/test/java</text>
    <text x="110" y="305" fill="#6ee7b7">✓ PaymentGatewayTest.java</text>
    <text x="95" y="340">📄 pom.xml (JDK 21 + Loom)</text>
    <text x="95" y="365">📄 application.yml</text>
  </g>

  <!-- Middle: Code Editor with Java Virtual Threads & Self-Healing Agent -->
  <rect x="310" y="85" width="500" height="545" fill="#08120e" />
  
  <rect x="310" y="85" width="260" height="34" fill="#0d1f18" stroke="#ffffff" stroke-opacity="0.08" />
  <text x="330" y="107" fill="#6ee7b7" font-family="monospace" font-size="12">☕ PaymentGatewayService.java</text>

  <g font-family="monospace" font-size="12" xml:space="preserve">
    <text x="330" y="140" fill="#64748b">18</text>
    <text x="360" y="140" fill="#34d399">@Service</text>

    <text x="330" y="165" fill="#64748b">19</text>
    <text x="360" y="165" fill="#6ee7b7">public class</text><text x="460" y="165" fill="#ffffff"> PaymentGatewayService {</text>

    <text x="330" y="195" fill="#64748b">20</text>
    <text x="380" y="195" fill="#94a3b8">// Refactored to Virtual Threads (Project Loom) via Aether Agent</text>

    <text x="330" y="225" fill="#64748b">21</text>
    <!-- Diff Added Block -->
    <rect x="355" y="210" width="440" height="75" rx="8" fill="#10b981" fill-opacity="0.15" stroke="#10b981" stroke-opacity="0.4" />
    <text x="365" y="232" fill="#34d399">+ public CompletableFuture&lt;Transaction&gt; processAsync(Order order) {</text>
    <text x="365" y="254" fill="#34d399">+     try (var executor = Executors.newVirtualThreadPerTaskExecutor()) {</text>
    <text x="365" y="276" fill="#34d399">+         return CompletableFuture.supplyAsync(() -&gt; executeWithRetry(order));</text>

    <text x="330" y="305" fill="#64748b">25</text>
    <text x="380" y="305" fill="#ffffff">    }</text>
    
    <text x="330" y="330" fill="#64748b">26</text>
    <text x="360" y="330" fill="#ffffff">}</text>
  </g>

  <!-- Right: Java Benchmark & Test Loop Verification Panel -->
  <rect x="810" y="85" width="320" height="545" fill="#050d09" stroke="#ffffff" stroke-opacity="0.08" />
  
  <rect x="810" y="85" width="320" height="38" fill="#0a1712" />
  <circle cx="830" cy="104" r="4" fill="#10b981" />
  <text x="845" y="108" fill="#a7f3d0" font-family="monospace" font-size="12" font-weight="700">JAVA BENCHMARK &amp; TESTS</text>

  <!-- Metrics Cards -->
  <rect x="830" y="135" width="280" height="65" rx="10" fill="#0d1f18" stroke="#10b981" stroke-opacity="0.3" />
  <text x="845" y="157" fill="#94a3b8" font-family="sans-serif" font-size="11">Throughput Boost (Virtual Threads)</text>
  <text x="845" y="185" fill="#34d399" font-family="monospace" font-size="20" font-weight="700">+340% (42k req/s)</text>

  <rect x="830" y="215" width="280" height="65" rx="10" fill="#0d1f18" stroke="#10b981" stroke-opacity="0.3" />
  <text x="845" y="237" fill="#94a3b8" font-family="sans-serif" font-size="11">Memory Footprint Reduction</text>
  <text x="845" y="265" fill="#38bdf8" font-family="monospace" font-size="20" font-weight="700">-68% GC Pressure</text>

  <!-- Self-Healing Test Output -->
  <rect x="830" y="295" width="280" height="150" rx="10" fill="#030805" stroke="#ffffff" stroke-opacity="0.08" />
  <text x="845" y="320" fill="#6ee7b7" font-family="monospace" font-size="11" font-weight="700">&gt; mvn test (All 48 Passed)</text>
  <g font-family="monospace" font-size="10" fill="#94a3b8">
    <text x="845" y="345">[INFO] Running PaymentGatewayTest</text>
    <text x="845" y="365" fill="#34d399">[INFO] Tests run: 48, Failures: 0</text>
    <text x="845" y="385">[INFO] VirtualThreadExecutor: OK</text>
    <text x="845" y="405" fill="#38bdf8">[INFO] BUILD SUCCESS (1.24s)</text>
    <text x="845" y="425" fill="#a7f3d0">⚡ Patch auto-verified &amp; ready</text>
  </g>

  <!-- Floating Badge -->
  <rect x="830" y="480" width="280" height="50" rx="10" fill="#10b981" fill-opacity="0.15" stroke="#10b981" stroke-opacity="0.4" />
  <text x="850" y="510" fill="#34d399" font-family="sans-serif" font-size="12" font-weight="700">✓ 100% Zero-Regressions Verified</text>
</svg>
